<svg width="90" height="90" fill="none" xmlns="http://www.w3.org/2000/svg"><path d="M45 0C20.187 0 0 20.187 0 45s20.187 45 45 45 45-20.188 45-45C90 20.187 69.813 0 45 0ZM30.39 7.692c-3.118 3.63-5.746 8.388-7.712 13.989a94.853 94.853 0 0 1-8.702-2.017A40.558 40.558 0 0 1 30.39 7.692ZM10.946 23.906a98.152 98.152 0 0 0 10.279 2.513c-1.335 5.083-2.099 10.497-2.272 16.121H5.005a39.927 39.927 0 0 1 5.941-18.634Zm-.001 42.188a39.944 39.944 0 0 1-5.94-18.634h13.948c.174 5.623.938 11.036 2.272 16.119a98.048 98.048 0 0 0-10.28 2.515Zm3.031 4.24a95.944 95.944 0 0 1 8.702-2.018c1.965 5.602 4.593 10.358 7.711 13.988a40.532 40.532 0 0 1-16.413-11.97ZM42.54 84.793c-6.017-1.355-11.53-7.686-15.007-17.262 4.766-.655 9.805-1.033 15.007-1.125v18.387Zm0-23.309c-5.703.1-11.242.535-16.489 1.295-1.273-4.811-2.006-9.953-2.18-15.319H42.54v14.024Zm0-18.944H23.871c.173-5.364.905-10.509 2.18-15.319 5.267.761 10.805 1.195 16.489 1.293V42.54Zm0-18.947c-5.197-.092-10.235-.469-15.007-1.125C31.01 12.89 36.522 6.56 42.54 5.206v18.387Zm36.515.312a39.95 39.95 0 0 1 5.939 18.635H71.048c-.175-5.628-.938-11.042-2.272-16.122a97.902 97.902 0 0 0 10.279-2.513Zm-3.032-4.24a95.033 95.033 0 0 1-8.7 2.016c-1.966-5.6-4.595-10.358-7.712-13.988a40.533 40.533 0 0 1 16.412 11.972ZM47.46 5.206c6.017 1.354 11.528 7.685 15.007 17.262-4.771.656-9.81 1.033-15.007 1.125V5.206Zm0 23.308c5.685-.098 11.224-.532 16.489-1.293 1.273 4.809 2.006 9.954 2.179 15.319H47.46V28.514Zm0 18.946h18.668c-.173 5.365-.905 10.509-2.179 15.319-5.247-.76-10.786-1.195-16.489-1.295V47.46Zm0 37.333V66.406c5.203.092 10.241.47 15.007 1.125-3.477 9.576-8.99 15.907-15.007 17.262Zm12.151-2.488c3.117-3.629 5.746-8.387 7.712-13.986a95.41 95.41 0 0 1 8.7 2.017 40.554 40.554 0 0 1-16.412 11.969Zm19.444-16.211a98.227 98.227 0 0 0-10.279-2.513c1.334-5.081 2.099-10.495 2.272-16.121h13.946a39.955 39.955 0 0 1-5.939 18.634Z" fill="#78CDF6"/></svg>